<?xml version="1.0" standalone="no"?>
<!DOCTYPE svg PUBLIC "-//W3C//DTD SVG 20010904//EN"
 "http://www.w3.org/TR/2001/REC-SVG-20010904/DTD/svg10.dtd">
<svg version="1.0" xmlns="http://www.w3.org/2000/svg"
 width="512.000000pt" height="512.000000pt" viewBox="0 0 512.000000 512.000000"
 preserveAspectRatio="xMidYMid meet">
<metadata>
Created by potrace 1.11, written by Peter Selinger 2001-2013
</metadata>
<g transform="translate(0.000000,512.000000) scale(0.100000,-0.100000)"
fill="#000000" stroke="none">
<path d="M1003 5106 c-154 -38 -280 -153 -334 -307 l-23 -64 -1 -2080 c-2
-2271 -5 -2130 56 -2245 61 -114 188 -212 309 -237 49 -10 147 -12 743 -12
l657 -1 0 -21 c0 -29 39 -96 66 -114 12 -8 43 -17 68 -20 44 -6 57 -2 194 65
l146 72 135 -68 c151 -75 197 -85 251 -56 43 24 80 76 80 113 l0 28 514 3
c502 3 515 4 542 24 73 54 91 138 44 207 -25 36 -76 67 -110 67 -11 0 -20 6
-21 13 -5 63 -3 305 2 317 4 9 19 16 33 18 34 2 71 27 99 66 l22 31 0 2056 0
2055 -25 37 c-49 72 81 67 -1748 66 -1283 -1 -1658 -3 -1699 -13z m283 -2143
c0 -1019 -2 -1854 -5 -1854 -3 -1 -55 -3 -116 -4 -60 -2 -135 -10 -166 -18
l-56 -14 0 1795 c0 1072 3 1809 9 1829 12 45 63 101 102 112 17 5 76 9 131 8
l100 -2 1 -1852z m2890 0 l-1 -1858 -1292 -1 c-711 0 -1294 2 -1294 5 -1 3 -2
840 -3 1859 l-1 1852 1296 0 1296 0 -1 -1857z m-1778 -2162 c9 -1 12 -42 12
-171 l0 -170 -666 0 c-639 1 -667 1 -704 20 -145 74 -118 286 41 319 23 5
1257 7 1317 2z m648 -4 c7 -7 8 -386 2 -393 -3 -2 -34 9 -69 26 -80 38 -114
38 -196 0 -35 -16 -66 -30 -69 -30 -9 0 -4 398 6 402 17 5 320 1 326 -5z m955
4 c13 -1 15 -24 15 -171 l0 -170 -332 0 -331 0 0 168 c-1 92 3 169 7 172 6 4
578 5 641 1z"/>
<path d="M2795 4473 c-175 -30 -341 -134 -435 -271 -25 -37 -43 -53 -65 -58
-84 -18 -178 -73 -243 -143 -143 -154 -162 -400 -46 -572 54 -80 133 -147 211
-178 l32 -13 3 -206 c3 -234 6 -243 84 -282 41 -20 55 -21 560 -18 l519 3 33
23 c60 43 65 65 66 282 l0 195 56 27 c254 123 341 448 183 686 -60 90 -167
166 -274 193 -33 9 -51 20 -63 40 -71 121 -218 230 -369 274 -53 15 -205 26
-252 18z m218 -326 c78 -36 131 -88 172 -170 44 -89 78 -115 160 -121 70 -5
101 -16 132 -45 58 -55 72 -140 34 -207 -30 -54 -77 -84 -142 -90 -64 -6 -107
-31 -134 -76 -18 -29 -20 -53 -22 -208 -1 -96 -2 -181 -2 -187 -1 -10 -74 -13
-331 -13 l-330 0 0 179 c0 131 -4 187 -14 212 -24 57 -63 83 -136 92 -62 7
-90 20 -122 53 -80 86 -58 217 46 271 16 8 56 17 89 19 85 6 116 27 154 104
56 112 143 187 240 209 64 14 147 5 206 -22z"/>
<path d="M2035 2382 c-126 -42 -142 -216 -25 -274 33 -17 95 -18 873 -18 902
0 865 -2 913 52 60 66 47 166 -28 220 l-33 23 -840 2 c-462 1 -849 -2 -860 -5z"/>
<path d="M2360 1737 c-70 -18 -115 -83 -107 -155 6 -51 31 -89 77 -116 31 -19
58 -20 534 -20 276 -1 518 3 539 8 25 6 49 22 70 47 59 69 44 174 -32 221
l-36 23 -505 1 c-278 0 -521 -4 -540 -9z"/>
</g>
</svg>
